<?xml version="1.0" encoding="utf-8"?>
<!-- Generator: Adobe Illustrator 19.0.1, SVG Export Plug-In . SVG Version: 6.00 Build 0)  -->
<svg class="h-100" version="1.1" id="Layer_1" xmlns="http://www.w3.org/2000/svg" xmlns:xlink="http://www.w3.org/1999/xlink" x="0px" y="0px"
	 viewBox="561.8 233.9 296.9 92.6" style="enable-background:new 561.8 233.9 296.9 92.6;" xml:space="preserve">
<style type="text/css">
	.st0{fill: inherit;}
	.st1{fill:#8D8989;}
	.st2{fill:#FFFFFF;}
</style>
<g>
	<polygon class="st0" points="606.7,246.4 594.6,258.6 570.2,234.2 563.3,241.1 589.7,267.5 589.7,292.8 599.5,292.8 599.5,267.5
		613.6,253.3 	"/>

		<rect x="614" y="236.2" transform="matrix(-0.7071 0.7071 -0.7071 -0.7071 1226.9795 -26.022)" class="st0" width="9.8" height="9.8"/>
	<rect x="614" y="253.7" class="st0" width="9.8" height="39.1"/>
	<rect x="766.4" y="234.5" class="st0" width="91.7" height="91.7"/>
</g>
<g>

		<rect x="746.6" y="236.2" transform="matrix(-0.7071 0.7071 -0.7071 -0.7071 1453.3429 -119.7912)" class="st1" width="9.8" height="9.8"/>
	<rect x="746.6" y="253.7" class="st1" width="9.8" height="39.1"/>
	<path class="st1" d="M703.7,273.3c0,11.3-9.2,20.5-20.5,20.5s-20.5-9.2-20.5-20.5s9.2-20.5,20.5-20.5S703.7,261.9,703.7,273.3z
		 M683.2,262.5c-5.9,0-10.7,4.8-10.7,10.7s4.8,10.7,10.7,10.7s10.7-4.8,10.7-10.7S689.2,262.5,683.2,262.5z"/>
	<polygon class="st1" points="738.2,248.8 720.8,278.8 704,248.8 695.6,253.7 718.3,292.8 724,292.8 746.6,253.7 	"/>
	<polygon class="st1" points="662.7,243.1 662.7,243.1 655.9,236.1 638.4,253.7 631.1,246.4 624.2,253.3 638.4,267.5 653,252.9
		653,292.8 662.7,292.8 	"/>
</g>
<path class="st2" d="M836.3,303.1v13.4c0,1.4-0.7,2.2-2.2,2.2H830l-0.2-0.9c1.4,0,2.7,0.1,4.1,0.1c1.1,0,1.6-0.5,1.6-1.6v-13.2
	h-11.4v-0.9h11.4v-4.9h-13.3v-0.9h13.3v-5h-11.3v-0.8h11.3v-4.5H820v11.5c-0.2,8.8-1.7,15.8-4.6,21.1l-0.7-0.6
	c2.8-4.9,4.2-11.8,4.3-20.5v-12.3h16.1c-0.7-1.4-1.3-2.6-2-3.6l0.9-0.2c0.7,1.1,1.4,2.4,2,3.8h14.6v0.9h-14.4v4.5h10.4v5.9h4.5v0.9
	h-4.5v5.8h-10.3V303.1z M831.8,312.6c-2.8,1.8-6.2,3.4-10.2,4.8l-0.4-0.8c4-1.3,7.5-2.9,10.4-4.9L831.8,312.6z M830.7,309.3
	l-0.5,0.7c-2.4-1.4-4.8-2.5-7.3-3.4l0.5-0.7C826.1,306.8,828.5,308,830.7,309.3z M836.3,296.4h9.5v-5h-9.5V296.4z M836.3,297.3v4.9
	h9.5v-4.9H836.3z M851.2,316.9l-0.5,0.8c-3.7-2.2-7.5-3.9-11.3-5.2l0.5-0.7C844,313.2,847.7,314.9,851.2,316.9z M848.2,306
	c-1.8,1.6-3.7,3-5.7,4.2l-0.7-0.6c2.2-1.3,4.1-2.7,5.7-4.2L848.2,306z"/>
<path class="st2" d="M814.8,258.2l-0.2-0.9c5.2-5.5,8.9-11.6,11.1-18.3l0.8,0.4c-1.3,3.6-2.8,6.8-4.7,9.9v27h-0.9v-25.5
	C819.1,253.5,817,255.9,814.8,258.2z M851.7,270.2v0.9h-25.6v-0.9H851.7z M849.5,246.4v0.9h-21.1v-0.9H849.5z"/>
<path class="st2" d="M806.2,241.5v0.9h-29.3v29.4c0,1.2,0.6,1.8,1.9,1.8h28.4v0.9h-28.4c-1.8,0-2.7-0.9-2.7-2.7v-29.4h-2.9v-0.9
	L806.2,241.5L806.2,241.5z M781.9,255.2l-0.6-0.6c2.6-2.5,4.7-5.8,6.1-10l0.8,0.2c-0.6,1.7-1.2,3.3-2,4.7h17.2v0.9H794v3.6
	c0,1.5-0.1,2.9-0.3,4.2h12.1v0.9h-12.2c-0.5,2.2-1.3,4.1-2.4,5.6c-2,2.5-5.1,4.4-9.5,5.9l-0.5-0.8c4.3-1.3,7.5-3.3,9.5-5.9
	c0.9-1.4,1.6-3,2-4.9h-11.9v-0.9h12.1c0.2-1.3,0.4-2.7,0.4-4.2v-3.6h-7.4C784.6,252.3,783.3,253.9,781.9,255.2z M805.7,270l-0.6,0.6
	c-2.8-2.8-6.4-5.4-10.7-7.9l0.5-0.7C799.2,264.4,802.8,267,805.7,270z"/>
<path class="st2" d="M801.3,297.1v0.9c-3,1.9-6.3,3.7-10,5.4v3.5h16.4v0.9h-16.4v8.3c0,1.7-0.9,2.6-2.5,2.6h-5.1l-0.2-0.9
	c1.5,0,3.2,0,5,0c1.4,0,2-0.7,2-2v-8H773v-0.9h17.5v-4c4.6-2.1,7.7-3.8,9.4-5h-20.4v-0.8H801.3z M806.7,298.4h-0.9v-6.7h-31.1v6.7
	h-0.9v-7.6H797c2.2-2.8,4-5.9,5.4-9.2l0.8,0.3c-1.6,3.6-3.4,6.6-5.2,8.9h8.7V298.4z M782.1,288.9l-0.8,0.4c-1.4-2.5-3-4.8-4.5-6.7
	l0.8-0.4C779.2,284.2,780.7,286.5,782.1,288.9z M791.6,288.5l-0.8,0.4c-1.2-2.6-2.5-4.9-3.9-6.9l0.8-0.4
	C789.1,283.7,790.5,286,791.6,288.5z"/>
</svg>
