<?xml version="1.0" encoding="utf-8"?>
<!-- Generator: Adobe Illustrator 19.0.0, SVG Export Plug-In . SVG Version: 6.00 Build 0)  -->
<svg version="1.1" id="Layer_1" xmlns="http://www.w3.org/2000/svg" xmlns:xlink="http://www.w3.org/1999/xlink" x="0px" y="0px"
	 viewBox="983.3 14.2 294.8 92" style="enable-background:new 983.3 14.2 294.8 92;" xml:space="preserve">
<style type="text/css">
	.st0{fill:#AE1E38;}
	.st1{fill:#8D8989;}
	.st2{fill:#FFFFFF;}
</style>
<g>
	<polygon class="st0" points="1026.7,26.4 1014.6,38.6 990.2,14.2 983.3,21.1 1009.7,47.5 1009.7,72.8 1019.5,72.8 1019.5,47.5
		1033.6,33.3 	"/>

		<rect x="1034" y="16.2" transform="matrix(-0.7071 0.7071 -0.7071 -0.7071 1788.4429 -698.5573)" class="st0" width="9.8" height="9.8"/>
	<rect x="1034" y="33.7" class="st0" width="9.8" height="39.1"/>
	<rect x="1186.4" y="14.5" class="st0" width="91.7" height="91.7"/>
</g>
<g>

		<rect x="1166.6" y="16.2" transform="matrix(-0.7071 0.7071 -0.7071 -0.7071 2014.7952 -792.3266)" class="st1" width="9.8" height="9.8"/>
	<rect x="1166.6" y="33.7" class="st1" width="9.8" height="39.1"/>
	<path class="st1" d="M1123.7,53.3c0,11.3-9.2,20.5-20.5,20.5c-11.3,0-20.5-9.2-20.5-20.5s9.2-20.5,20.5-20.5
		C1114.5,32.8,1123.7,41.9,1123.7,53.3z M1103.2,42.5c-5.9,0-10.7,4.8-10.7,10.7s4.8,10.7,10.7,10.7c5.9,0,10.7-4.8,10.7-10.7
		S1109.2,42.5,1103.2,42.5z"/>
	<polygon class="st1" points="1158.2,28.8 1140.8,58.8 1124,28.8 1115.6,33.7 1138.3,72.8 1144,72.8 1166.6,33.7 	"/>
	<polygon class="st1" points="1082.7,23.1 1082.7,23.1 1075.9,16.1 1058.4,33.7 1051.1,26.4 1044.2,33.3 1058.4,47.5 1073,32.9
		1073,72.8 1082.7,72.8 	"/>
</g>
<g>
	<path class="st2" d="M1256.3,40.6V54c0,1.4-0.7,2.2-2.2,2.2h-4.1l-0.2-0.9c1.4,0,2.7,0.1,4.1,0.1c1.1,0,1.6-0.5,1.6-1.6V40.6h-11.4
		v-0.9h11.4v-4.9h-13.3v-0.9h13.3v-5h-11.3v-0.8h11.3v-4.5H1240v11.5c-0.2,8.8-1.7,15.8-4.6,21.1l-0.7-0.6
		c2.8-4.9,4.2-11.8,4.3-20.5V22.8h16.1c-0.7-1.4-1.3-2.6-2-3.6l0.9-0.2c0.7,1.1,1.4,2.4,2,3.8h14.6v0.9h-14.4v4.5h10.4v5.9h4.5V35
		h-4.5v5.8h-10.3V40.6z M1251.8,50.1c-2.8,1.8-6.2,3.4-10.2,4.8l-0.4-0.8c4-1.3,7.5-2.9,10.4-4.9L1251.8,50.1z M1250.7,46.8
		l-0.5,0.7c-2.4-1.4-4.8-2.5-7.3-3.4l0.5-0.7C1246.1,44.3,1248.5,45.5,1250.7,46.8z M1256.3,33.9h9.5v-5h-9.5V33.9z M1256.3,34.8
		v4.9h9.5v-4.9H1256.3z M1271.2,54.4l-0.5,0.8c-3.7-2.2-7.5-3.9-11.3-5.2l0.5-0.7C1264,50.7,1267.7,52.4,1271.2,54.4z M1268.2,43.5
		c-1.8,1.6-3.7,3-5.7,4.2l-0.7-0.6c2.2-1.3,4.1-2.7,5.7-4.2L1268.2,43.5z"/>
	<path class="st2" d="M1234.8,81l-0.2-0.9c5.2-5.5,8.9-11.6,11.1-18.3l0.8,0.4c-1.3,3.6-2.8,6.8-4.7,9.9v27h-0.9V73.6
		C1239.1,76.3,1237,78.7,1234.8,81z M1271.7,93v0.9h-25.6V93H1271.7z M1269.5,69.2v0.9h-21.1v-0.9H1269.5z"/>
	<path class="st2" d="M1226.2,21.5v0.9h-29.3v29.4c0,1.2,0.6,1.8,1.9,1.8h28.4v0.9h-28.4c-1.8,0-2.7-0.9-2.7-2.7V22.4h-2.9v-0.9
		L1226.2,21.5L1226.2,21.5z M1201.9,35.2l-0.6-0.6c2.6-2.5,4.7-5.8,6.1-10l0.8,0.2c-0.6,1.7-1.2,3.3-2,4.7h17.2v0.9h-9.4V34
		c0,1.5-0.1,2.9-0.3,4.2h12.1v0.9h-12.2c-0.5,2.2-1.3,4.1-2.4,5.6c-2,2.5-5.1,4.4-9.5,5.9l-0.5-0.8c4.3-1.3,7.5-3.3,9.5-5.9
		c0.9-1.4,1.6-3,2-4.9h-11.9v-0.9h12.1c0.2-1.3,0.4-2.7,0.4-4.2v-3.6h-7.4C1204.6,32.3,1203.3,33.9,1201.9,35.2z M1225.7,50
		l-0.6,0.6c-2.8-2.8-6.4-5.4-10.7-7.9l0.5-0.7C1219.2,44.4,1222.8,47,1225.7,50z"/>
	<path class="st2" d="M1221.3,77.1V78c-3,1.9-6.3,3.7-10,5.4v3.5h16.4v0.9h-16.4v8.3c0,1.7-0.9,2.6-2.5,2.6h-5.1l-0.2-0.9
		c1.5,0,3.2,0,5,0c1.4,0,2-0.7,2-2v-8H1193v-0.9h17.5v-4c4.6-2.1,7.7-3.8,9.4-5h-20.4v-0.8H1221.3z M1226.7,78.4h-0.9v-6.7h-31.1
		v6.7h-0.9v-7.6h23.2c2.2-2.8,4-5.9,5.4-9.2l0.8,0.3c-1.6,3.6-3.4,6.6-5.2,8.9h8.7V78.4z M1202.1,68.9l-0.8,0.4
		c-1.4-2.5-3-4.8-4.5-6.7l0.8-0.4C1199.2,64.2,1200.7,66.5,1202.1,68.9z M1211.6,68.5l-0.8,0.4c-1.2-2.6-2.5-4.9-3.9-6.9l0.8-0.4
		C1209.1,63.7,1210.5,66,1211.6,68.5z"/>
</g>
</svg>
